<svg xmlns="http://www.w3.org/2000/svg" viewBox="0 0 64 64" fill="none">
  <defs>
    <linearGradient id="bg" x1="0" y1="0" x2="64" y2="64" gradientUnits="userSpaceOnUse">
      <stop offset="0%" stop-color="#818cf8"/>
      <stop offset="100%" stop-color="#6366f1"/>
    </linearGradient>
  </defs>
  <rect width="64" height="64" rx="14" fill="url(#bg)"/>
  <path d="M21 17h22v5c0 7-5.5 11-11 13.5C26.5 33 21 29 21 22v-5z" fill="white" opacity="0.3"/>
  <path d="M21 17h22v5c0 7-5.5 11-11 13.5C26.5 33 21 29 21 22v-5zM21 47h22v-5c0-7-5.5-11-11-13.5C26.5 31 21 35 21 42v5z"
        stroke="white" stroke-width="2.5" stroke-linecap="round" stroke-linejoin="round"/>
  <line x1="21" y1="17" x2="43" y2="17" stroke="white" stroke-width="2.5" stroke-linecap="round"/>
  <line x1="21" y1="47" x2="43" y2="47" stroke="white" stroke-width="2.5" stroke-linecap="round"/>
  <circle cx="32" cy="42" r="2" fill="white" opacity="0.5"/>
  <circle cx="32" cy="38" r="1.5" fill="white" opacity="0.3"/>
</svg>
